<?xml version="1.0" encoding="utf-8"?>
<!-- Generator: Adobe Illustrator 16.0.0, SVG Export Plug-In . SVG Version: 6.00 Build 0)  -->
<!DOCTYPE svg PUBLIC "-//W3C//DTD SVG 1.1//EN" "http://www.w3.org/Graphics/SVG/1.1/DTD/svg11.dtd">
<svg version="1.1" id="Layer_1" xmlns="http://www.w3.org/2000/svg" xmlns:xlink="http://www.w3.org/1999/xlink" x="0px" y="0px"
	 width="1000px" height="1000px" viewBox="0 0 1000 1000" enable-background="new 0 0 1000 1000" xml:space="preserve">
<path fill="#5DDDD3" d="M500,1000c275.389,0,500-224.611,500-500S775.389,0,500,0S0,224.611,0,500S224.611,1000,500,1000z"/>
<path fill="#F0B97D" d="M454.422,401.572h18.104h54.934h18.104l7.389,76.813l13.113,10.523l27.656,17.613l-93.729,221.396
	l-93.729-221.396l27.656-17.613l13.113-10.514l7.381-76.82h0.008V401.572z"/>
<path fill="#F1F1F1" d="M424.348,494.594l-75.543,24.115l151.188,209.209l128.629-216.227l-53.375-16.926l-47,33.18H471.9
	l-47.561-33.354h0.008V494.594z"/>
<path fill="#FF5B61" d="M483.129,524.904l6.457,15.93l-14.354,181.551l24.758,18.953l24.768-18.953l-14.354-181.551l6.457-15.93
	l-16.871-0.67L483.129,524.904z"/>
<path fill="#15BDB1" d="M425.643,494.186l-133.619,42.652c0,0-17.297,8.992-22.514,36.342c-5.008,26.199-7.588,52.967-11.537,89.092
	c63.734,58.482,148.705,94.189,242.025,94.189s178.301-35.707,242.035-94.199c-3.957-36.123-6.539-62.893-11.547-89.092
	c-5.225-27.357-22.521-36.342-22.521-36.342l-132.711-42.063L500,715.475l-74.348-221.289H425.643z"/>
<path fill="#20D0C2" d="M425.643,494.186l-28.824,9.201l-5.533,73.135c0,0,1.531,6.004,6.104,5.471l26.008,9.781
	c0,0,1.703,1.711,0.182,3.857l-22.26,15.25l76.912,144.967c7.209,0.416,14.463,0.625,21.762,0.625
	c7.309,0,14.563-0.209,21.762-0.625l76.92-144.967l-22.26-15.25c-1.531-2.146,0.182-3.857,0.182-3.857l26.008-9.781
	c4.572,0.535,6.104-5.471,6.104-5.471l-5.523-72.9l-27.938-8.857l-75.254,220.709L425.643,494.186z"/>
<path fill="#FED198" d="M393.848,245.359c0,7.145-2.607,14.127-2.408,20.982c-24.424-4.537-12.633,68.018,1.195,77.988
	c1.096,0.797,3.795-0.979,6.076-2.428c4.791,26.678,45.705,97.984,71.713,127.996c7.227,8.332,51.4,8.195,58.547,0.316
	c26.643-29.322,67.502-101.471,72.32-128.313c2.281,1.449,4.98,3.225,6.076,2.428c13.818-9.971,25.609-82.525,1.186-77.988
	c0.189-6.855-2.408-13.838-2.408-20.982c-1.35-56.336-52.396-84.455-106.152-84.699c-53.746,0.244-104.795,28.363-106.152,84.699
	H393.848z"/>
<path fill="#666666" d="M426.576,173.139c-7.697-0.896-35.518,7.625-38.859,37.066s-1.748,56.563-1.748,56.563
	s16.301,4.111,18.355,20.82c2.047,16.717,0.588,16.717,0.588,16.717l5.904-1.332l4.201-28.645
	c24.387-15.287-0.182-37.916,24.207-43.215c65.873,46.945,124.002,38.912,150.209,16.826c0,0-6.113,23.102-1.395,31.334
	c4.709,8.24,1.902,21.219,1.902,21.219l6.121-0.289c0,0-1.113-34.023,12.488-33.869C660.234,181,496.623,75.01,426.576,173.139z"/>
<g>
	<path fill="#FFFFFF" d="M446.408,467.426c1.91,0.127-22.314,27.447-22.314,27.447l20.621,70.6l55.277-41.24
		C469.59,509.309,451.443,489.984,446.408,467.426z"/>
	<path fill="#FFFFFF" d="M553.592,467.426c-1.92,0.127,22.295,27.447,22.295,27.447l-20.621,70.6l-55.277-41.24
		c30.41-14.924,48.557-34.25,53.592-56.807H553.592L553.592,467.426z"/>
</g>
<path fill="#666666" d="M469.916,403.963l15.123-10.287c4.646,4.328,26.262,4.266,30.881-0.045l13.945,10.332
	c6.766,5.008,13.738,6.729,15.477,14.498l5.533,24.84c1.738,7.787-13.674,33.969-22.16,33.969h-59.949
	c-8.484,0-20.131-24.984-18.781-32.863l4.455-25.945C455.789,410.582,462.943,408.709,469.916,403.963z M496.088,409.768
	L496.088,409.768l-29.332,15.412c0,0,1.357,17.043,5.162,22.387c3.795,5.334,18.736-1.033,18.736-1.033s0-13.348,4.348-13.141
	c0.045,0,9.734,0,9.771,0c4.338-0.209,4.338,13.141,4.338,13.141s14.941,6.367,18.746,1.033c3.795-5.344,5.162-22.387,5.162-22.387
	l-29.332-15.412l-3.803,1.068l-3.803-1.068H496.088z"/>
<path fill="#FFFFFF" d="M304.041,453.453l89.816-20.43v15.439l-86.41,20.43c-2.119,0.182-16.201,5.914-20.621,10.332
	c-4.42,4.42-7.172,10.514-7.172,17.215c0,43.984,0.072,87.932,0.072,131.844h-7.797h-7.715v-7.725V496.439
	c0-10.957,4.473-20.928,11.691-28.137c7.217-7.217,22.287-14.154,28.137-14.861v0.012H304.041z"/>
<g>
	<path fill="#0E7886" d="M341.967,435.648l69.322-14.615c5.777-1.213,11.5,2.508,12.723,8.285l2.119,10.088
		c1.223,5.777-2.508,11.5-8.285,12.715l-69.322,14.615c-5.777,1.213-11.5-2.518-12.715-8.285l-2.129-10.088
		C332.467,442.586,336.189,436.863,341.967,435.648z"/>
	<path fill="#0E7886" d="M271.91,595.91c20.557,0,37.219,16.662,37.219,37.219l-0.01,0.244h-74.42l-0.01-0.244
		C234.691,612.582,251.354,595.91,271.91,595.91z"/>
</g>
<g>
	<path fill="#FBB429" d="M156.305,628.059h687.383v50.359H156.305V628.059z"/>
	<path fill="#FBB429" d="M245.693,678.418h508.611V999.99H245.693V678.418z"/>
</g>
<g>
	<path fill="#FBAB08" d="M156.305,678.418l89.391,56.654v-56.654H156.305z M843.688,678.418L843.688,678.418l-89.391,56.654v-56.654
		H843.688z"/>
	<path fill="#FBAB08" d="M245.693,678.418h508.611v21.398H245.693V678.418z"/>
</g>
<rect x="245.693" y="819.699" fill="#F7A713" width="506.828" height="79.104"/>
<circle fill="#FAAC1B" cx="499.113" cy="859.254" r="91.102"/>
</svg>
