<?xml version="1.0" encoding="utf-8"?>
<!-- Generator: Adobe Illustrator 16.0.0, SVG Export Plug-In . SVG Version: 6.00 Build 0)  -->
<!DOCTYPE svg PUBLIC "-//W3C//DTD SVG 1.1//EN" "http://www.w3.org/Graphics/SVG/1.1/DTD/svg11.dtd">
<svg version="1.1" id="Layer_1" xmlns="http://www.w3.org/2000/svg" xmlns:xlink="http://www.w3.org/1999/xlink" x="0px" y="0px"
	 width="1000px" height="1000px" viewBox="0 0 1000 1000" enable-background="new 0 0 1000 1000" xml:space="preserve">
<path fill="#32BEA6" d="M1000,500C1000,223.901,776.099,0,500,0C223.902,0,0,223.901,0,500s223.902,500,500,500
	C776.099,1000,1000,776.099,1000,500z"/>
<path id="SVGCleanerId_0" fill="#E2A379" d="M578.396,568.521H421.604c24.385,73.761,2.015,107.417,2.015,107.417l54.212,12.293
	h44.337l54.213-12.293C576.381,675.938,554.011,642.281,578.396,568.521z"/>
<g>
	<path fill="#E2A379" d="M500.201,786.175c90.488,0,76.18-110.237,76.18-110.237s-17.937,34.864-76.784,34.864
		c-58.847,0-75.574-34.864-75.574-34.864S409.714,786.175,500.201,786.175z"/>
	<path fill="#E2A379" d="M499.396,671.906c-155.583,0-280.331,44.539-295.042,99.355c-6.65,24.587-14.107,70.938-20.354,115.881
		c86.054,70.334,196.292,112.656,316.203,112.656c119.912,0,229.948-42.322,316.203-112.656
		c-6.449-44.942-13.905-91.496-20.354-115.881C780.936,716.445,654.776,671.906,499.396,671.906z"/>
</g>
<path fill="#E9F2F4" d="M499.396,671.906c-155.583,0-280.331,44.539-295.042,99.355c-6.65,24.587-14.107,70.938-20.354,115.881
	c86.054,70.334,196.292,112.656,316.203,112.656c119.912,0,229.948-42.322,316.203-112.656
	c-6.449-44.942-13.905-91.496-20.354-115.881C780.936,716.445,654.776,671.906,499.396,671.906z"/>
<path fill="#78DDF4" d="M499.193,671.906c-2.821,0-5.844,0-8.665,0c-0.807,0-1.612,0-2.217,0c-2.218,0-4.232,0-6.449,0
	c-0.403,0-1.008,0-1.411,0c-39.701,0.604-76.38,3.628-106.61,8.263c0,0,8.062,76.381,8.062,118.098l117.896,139.057l117.492-138.854
	c0-85.853-0.201-118.702-0.201-118.702C583.434,674.728,544.74,671.906,499.193,671.906z"/>
<g>
	<path id="SVGCleanerId_0_1_" fill="#E2A379" d="M578.396,568.521H421.604c24.385,73.761,2.015,107.417,2.015,107.417l54.212,12.293
		h44.337l54.213-12.293C576.381,675.938,554.011,642.281,578.396,568.521z"/>
</g>
<g>
	<path fill="#9B1818" d="M500,685.61l-31.641,9.473c0,0,10.883,51.592,31.641,51.592s31.641-51.592,31.641-51.592L500,685.61z"/>
	<path fill="#9B1818" d="M500,944.981c0,0,32.446-59.25,47.763-92.301l-39.701-132.406h-16.324l-39.299,131.802
		C467.755,885.328,500,944.981,500,944.981z"/>
</g>
<path fill="#4ECFF2" d="M617.694,678.355l-37.484-32.648L500,685.61c0,0,117.09,66.103,117.694,65.699V678.355z"/>
<polygon fill="#C9DEE2" points="721.483,708.585 591.092,654.776 500,945.385 665.055,751.914 642.886,729.746 676.139,729.746 "/>
<path fill="#4ECFF2" d="M382.306,678.355l37.484-32.648L500,685.813c0,0-117.09,66.102-117.493,65.699v-73.156H382.306z"/>
<polygon fill="#C9DEE2" points="278.315,708.585 409.311,654.776 500,945.385 334.744,751.914 356.912,729.746 323.66,729.746 "/>
<g>
	<path fill="#3F3F3F" d="M432.89,628.778c-70.334,17.332-120.516,60.863-120.516,111.648v171.907h10.076V740.428
		c0-45.748,45.748-85.047,110.238-101.371C433.092,635.832,433.092,632.406,432.89,628.778z"/>
	<path fill="#3F3F3F" d="M567.11,628.778c0,3.628,0,7.054,0.201,10.278c64.691,16.324,110.238,55.623,110.238,101.37v31.641h10.076
		v-31.438C687.626,689.642,637.444,646.11,567.11,628.778z"/>
</g>
<circle fill="#5E5E5E" cx="317.614" cy="894.8" r="33.656"/>
<circle fill="#828282" cx="317.614" cy="894.8" r="29.423"/>
<circle fill="#5E5E5E" cx="317.614" cy="894.801" r="20.758"/>
<circle fill="#828282" cx="317.614" cy="894.8" r="14.914"/>
<g>
	<path fill="#69696B" d="M704.151,925.635c-11.688,0-27.207-0.201-40.508-7.255c-16.728-8.868-25.393-26.401-25.393-51.794v-43.531
		h8.061v43.531c0,22.571,6.853,37.283,20.96,44.74c12.092,6.449,27.005,6.449,38.089,6.449h1.21v8.061h-1.21
		C704.958,925.635,704.555,925.635,704.151,925.635z"/>
	<path fill="#69696B" d="M715.235,921.604c0,4.635-3.829,8.464-8.464,8.464l0,0c-4.635,0-8.465-3.829-8.465-8.464l0,0
		c0-4.636,3.829-8.465,8.465-8.465l0,0C711.205,912.938,715.235,916.768,715.235,921.604L715.235,921.604z"/>
</g>
<g>
	<path fill="#8D8D8E" d="M660.621,925.434c-0.403,0-0.807,0-1.21,0h-1.209v-8.062h1.209c10.883,0,25.998,0,38.09-6.449
		c14.107-7.457,20.959-22.168,20.959-44.74v-43.53h8.062v43.53c0,25.595-8.465,42.927-25.393,51.794
		C687.827,925.231,672.31,925.434,660.621,925.434z"/>
	<path fill="#8D8D8E" d="M649.738,921.402c0,4.636,3.829,8.465,8.464,8.465l0,0c4.636,0,8.465-3.829,8.465-8.465l0,0
		c0-4.635-3.829-8.464-8.465-8.464l0,0C653.567,912.736,649.738,916.565,649.738,921.402L649.738,921.402z"/>
</g>
<path fill="#3F3F3F" d="M722.491,827.892c-2.821,0-5.038-2.217-5.038-5.038v-13.301c0-19.348-15.72-35.066-35.067-35.066
	c-19.347,0-35.066,15.719-35.066,35.066v13.301c0,2.821-2.217,5.038-5.038,5.038s-5.038-2.217-5.038-5.038v-13.301
	c0-24.789,20.153-45.144,45.143-45.144c24.99,0,45.144,20.153,45.144,45.144v13.301
	C727.529,825.474,725.313,827.892,722.491,827.892z"/>
<path fill="#F4B382" d="M660.822,353.083c0-186.215-71.947-228.94-160.822-228.94c-88.674,0-160.822,42.725-160.822,228.94
	c0,63.08,11.286,112.455,28.215,150.544C404.474,587.465,468.763,616.687,500,616.687s95.324-29.222,132.607-113.059
	C649.536,465.538,660.822,416.163,660.822,353.083z"/>
<path fill="#261D17" d="M416.969,341.798c-38.492,0-69.932,6.65-69.932,54.816c0,30.432,17.332,60.661,69.932,60.661
	c38.493,0,69.932-30.432,69.932-60.661S455.663,341.798,416.969,341.798z M416.969,445.385c-41.717,0-55.421-24.184-55.421-48.166
	c0-38.291,24.788-43.531,55.421-43.531s55.422,19.548,55.422,43.531S447.602,445.385,416.969,445.385z"/>
<path fill="#F4C4A4" d="M416.969,353.688c-30.633,0-55.421,5.441-55.421,43.531c0,23.982,13.704,48.166,55.421,48.166
	c30.633,0,55.422-24.184,55.422-48.166S447.602,353.688,416.969,353.688z"/>
<path fill="#F4CCB0" d="M416.969,353.688c-30.633,0-55.421,5.441-55.421,43.531c0,20.153,9.674,40.307,37.283,46.353l33.253-88.271
	C427.247,354.292,422.209,353.688,416.969,353.688z"/>
<path fill="#F4C4A4" d="M472.391,397.219c0-19.952-17.131-36.679-40.307-41.918l-33.052,88.271
	c5.24,1.209,11.286,1.813,18.139,1.813C447.602,445.385,472.391,421.201,472.391,397.219z"/>
<g>
	<path fill="#261D17" d="M355.502,380.29c-1.814,0-3.628-0.806-5.038-2.217l-26.804-29.222c-2.62-2.821-2.419-7.255,0.402-9.673
		c2.822-2.62,7.256-2.418,9.674,0.403l26.804,29.222c2.62,2.821,2.419,7.255-0.403,9.674
		C358.928,379.686,357.315,380.29,355.502,380.29z"/>
	<path fill="#261D17" d="M645.707,380.29c1.814,0,3.628-0.806,5.039-2.217l26.803-29.222c2.62-2.821,2.419-7.255-0.402-9.673
		c-2.821-2.62-7.256-2.418-9.674,0.403l-26.804,29.222c-2.62,2.821-2.418,7.255,0.403,9.674
		C642.482,379.686,644.095,380.29,645.707,380.29z"/>
	<path fill="#261D17" d="M512.898,396.614c0,30.432,31.237,60.661,69.931,60.661c52.601,0,69.932-30.432,69.932-60.661
		c0-48.166-31.237-54.816-69.932-54.816C544.136,341.798,512.898,366.385,512.898,396.614z M527.408,397.219
		c0-23.982,24.788-43.531,55.421-43.531c30.634,0,55.422,5.441,55.422,43.531c0,23.982-13.704,48.166-55.422,48.166
		C552.196,445.385,527.408,421.201,527.408,397.219z"/>
</g>
<path fill="#F4C4A4" d="M582.829,353.688c30.634,0,55.422,5.441,55.422,43.531c0,23.982-13.704,48.166-55.422,48.166
	c-30.633,0-55.421-24.184-55.421-48.166S552.196,353.688,582.829,353.688z"/>
<path fill="#F4CCB0" d="M582.829,353.688c-5.239,0-10.277,0.604-15.114,1.612c-23.177,5.24-40.307,21.967-40.307,41.918
	c0,19.952,16.929,39.903,40.104,46.15l33.253-88.673C595.123,353.89,589.077,353.688,582.829,353.688z"/>
<path fill="#F4C4A4" d="M600.766,443.571c27.61-6.046,37.283-26.199,37.283-46.353c0-30.229-15.518-39.903-37.283-42.523
	l-33.253,88.673c4.837,1.411,9.876,2.016,15.316,2.016C589.48,445.385,595.526,444.78,600.766,443.571z"/>
<g>
	<path fill="#261D17" d="M524.587,404.272h-43.732c-0.403,0-12.092-23.982-11.487-23.982h60.862
		C530.834,380.29,524.99,404.272,524.587,404.272z"/>
	<path fill="#261D17" d="M520.758,404.474c-6.046-4.231-13.301-8.464-21.161-8.464c-5.844,0-11.688,3.225-16.525,5.643
		c-7.859,4.031-7.859,25.595-7.859,25.595c4.434-9.472,14.106-15.518,24.587-15.518c10.277,0,19.951,6.046,24.587,15.518
		C524.184,427.448,526.603,408.505,520.758,404.474z"/>
</g>
<g>
	<path fill="#F4B382" d="M323.861,418.581c8.666,50.786,19.347,53.003,34.865,50.383l-16.324-110.439
		C326.885,361.346,315.195,367.997,323.861,418.581z"/>
	<path fill="#F4B382" d="M658.001,358.727l-16.324,110.439c15.316,2.619,26.199,0.201,34.865-50.383
		C685.006,367.997,673.317,361.346,658.001,358.727z"/>
</g>
<path fill="#3A1D12" d="M666.667,423.418C866.586,223.499,615.68,124.144,500,124.144s-364.369,101.37-166.667,299.274
	l19.146-78.396c92.302,0,171.101-54.212,228.134-105.401C604.797,306.53,666.667,423.418,666.667,423.418z"/>
<path fill="#CC785E" d="M553.809,531.641c0,0-28.617,19.347-53.809,19.347s-53.809-19.347-53.809-19.347
	c0-2.821,22.772-10.682,32.446-12.092c6.046-1.008,21.362,5.038,21.362,5.038s15.115-5.845,20.959-5.038
	C530.834,520.959,553.809,531.641,553.809,531.641z"/>
<path fill="#C16952" d="M553.809,531.641c0,0-28.617,27.207-53.809,27.207s-53.809-27.207-53.809-27.207s13.1,3.022,39.5,1.41
	c4.434-0.201,10.278,3.225,14.107,3.225c3.426,0,8.464-3.627,12.293-3.426C539.903,534.462,553.809,531.641,553.809,531.641z"/>
</svg>
