<?xml version="1.0" encoding="utf-8"?>
<!-- Generator: Adobe Illustrator 17.0.0, SVG Export Plug-In . SVG Version: 6.00 Build 0)  -->
<!DOCTYPE svg PUBLIC "-//W3C//DTD SVG 1.1//EN" "http://www.w3.org/Graphics/SVG/1.1/DTD/svg11.dtd">
<svg version="1.1" id="Capa_1" xmlns="http://www.w3.org/2000/svg" xmlns:xlink="http://www.w3.org/1999/xlink" x="0px" y="0px"
	 width="207px" height="208px" viewBox="0 0 207 208" enable-background="new 0 0 207 208" xml:space="preserve">
<circle fill="#32BEA6" cx="103.5" cy="104" r="98"/>
<path fill="#464655" d="M163.289,144.015H45.712c-2.405,0-4.355-1.95-4.355-4.355V61.275c0-2.405,1.95-4.355,4.355-4.355h117.577
	c2.405,0,4.355,1.95,4.355,4.355v78.385C167.643,142.066,165.694,144.015,163.289,144.015z"/>
<rect x="47.889" y="63.454" fill="#959CB3" width="113.222" height="60.966"/>
<path fill="#C7CFE2" d="M41.357,130.951v8.709c0,2.405,1.95,4.355,4.355,4.355h117.577c2.405,0,4.355-1.95,4.355-4.355v-8.709
	H41.357z"/>
<polygon fill="#AFB9D2" points="121.919,161.434 87.081,161.434 89.259,144.015 119.741,144.015 "/>
<g>
	<polygon fill="#959CB3" points="120.286,148.37 119.741,144.015 89.259,144.015 88.714,148.37 	"/>
	<circle fill="#959CB3" cx="104.5" cy="137.483" r="3.266"/>
</g>
<path fill="#EFF2FA" d="M145.87,124.419H63.131V46.034c0-1.202,0.975-2.177,2.177-2.177h78.385c1.202,0,2.177,0.975,2.177,2.177
	V124.419L145.87,124.419z"/>
<path fill="#F7ABAF" d="M137.16,69.985H71.839c-1.202,0-2.177-0.975-2.177-2.177V52.567c0-1.202,0.975-2.177,2.177-2.177h65.321
	c1.202,0,2.177,0.975,2.177,2.177v15.241C139.338,69.011,138.363,69.985,137.16,69.985z"/>
<path fill="#FF6464" d="M136.072,83.05H72.929c-1.804,0-3.266-1.462-3.266-3.266l0,0c0-1.804,1.462-3.266,3.266-3.266h63.143
	c1.804,0,3.266,1.462,3.266,3.266l0,0C139.338,81.587,137.875,83.05,136.072,83.05z"/>
<g>
	<path fill="#AFB9D2" d="M137.16,93.936h-28.305c-1.202,0-2.177-0.975-2.177-2.177l0,0c0-1.202,0.975-2.177,2.177-2.177h28.306
		c1.202,0,2.177,0.975,2.177,2.177l0,0C139.338,92.961,138.363,93.936,137.16,93.936z"/>
	<path fill="#AFB9D2" d="M100.145,93.936H71.839c-1.202,0-2.177-0.975-2.177-2.177l0,0c0-1.202,0.975-2.177,2.177-2.177h28.306
		c1.202,0,2.177,0.975,2.177,2.177l0,0C102.323,92.961,101.348,93.936,100.145,93.936z"/>
</g>
<g>
	<path fill="#C7CFE2" d="M137.16,102.646h-28.305c-1.202,0-2.177-0.975-2.177-2.177l0,0c0-1.202,0.975-2.177,2.177-2.177h28.306
		c1.202,0,2.177,0.975,2.177,2.177l0,0C139.338,101.671,138.363,102.646,137.16,102.646z"/>
	<path fill="#C7CFE2" d="M100.145,102.646H71.839c-1.202,0-2.177-0.975-2.177-2.177l0,0c0-1.202,0.975-2.177,2.177-2.177h28.306
		c1.202,0,2.177,0.975,2.177,2.177l0,0C102.323,101.671,101.348,102.646,100.145,102.646z"/>
	<path fill="#C7CFE2" d="M137.16,111.355h-28.305c-1.202,0-2.177-0.975-2.177-2.177l0,0c0-1.202,0.975-2.177,2.177-2.177h28.306
		c1.202,0,2.177,0.975,2.177,2.177l0,0C139.338,110.38,138.363,111.355,137.16,111.355z"/>
	<path fill="#C7CFE2" d="M137.16,120.065h-28.305c-1.202,0-2.177-0.975-2.177-2.177l0,0c0-1.202,0.975-2.177,2.177-2.177h28.306
		c1.202,0,2.177,0.975,2.177,2.177l0,0C139.338,119.09,138.363,120.065,137.16,120.065z"/>
	<path fill="#C7CFE2" d="M100.145,111.355H71.839c-1.202,0-2.177-0.975-2.177-2.177l0,0c0-1.202,0.975-2.177,2.177-2.177h28.306
		c1.202,0,2.177,0.975,2.177,2.177l0,0C102.323,110.38,101.348,111.355,100.145,111.355z"/>
</g>
<path fill="#E4EAF6" d="M102.323,124.419h-32.66v-6.664c0-1.129,0.916-2.045,2.045-2.045h28.57c1.129,0,2.045,0.916,2.045,2.045
	L102.323,124.419L102.323,124.419z"/>
<rect x="141.515" y="102.646" fill="#FF6464" width="8.709" height="54.434"/>
<rect x="141.515" y="102.646" fill="#D2555A" width="4.355" height="54.434"/>
<path fill="#FFE6A1" d="M141.515,102.646l3.721-14.884c0.165-0.66,1.103-0.66,1.268,0l3.721,14.884H141.515z"/>
<path fill="#FF6464" d="M145.236,87.762l-1.544,6.175h4.355l-1.544-6.175C146.338,87.102,145.401,87.102,145.236,87.762z"/>
<g>
	<circle fill="#EBBA16" cx="50.596" cy="117.253" r="28.676"/>
	<g>
		<polygon fill="#FFFFFF" points="65.429,117.253 43.675,132.085 43.675,117.523 43.675,102.42 		"/>
		<path fill="#FFFFFF" d="M43.675,133.074c-0.158,0-0.317-0.038-0.462-0.115c-0.324-0.171-0.527-0.507-0.527-0.874V102.42
			c0-0.367,0.203-0.703,0.527-0.874c0.324-0.172,0.716-0.148,1.02,0.057l21.754,14.832c0.269,0.184,0.431,0.489,0.431,0.817
			s-0.162,0.633-0.432,0.817l-21.754,14.832C44.064,133.015,43.869,133.074,43.675,133.074z M44.664,104.292v25.922l19.01-12.961
			L44.664,104.292z"/>
	</g>
</g>
</svg>
