<?xml version="1.0" encoding="utf-8"?>
<!-- Generator: Adobe Illustrator 16.0.0, SVG Export Plug-In . SVG Version: 6.00 Build 0)  -->
<!DOCTYPE svg PUBLIC "-//W3C//DTD SVG 1.1 Tiny//EN" "http://www.w3.org/Graphics/SVG/1.1/DTD/svg11-tiny.dtd">
<svg version="1.1" baseProfile="tiny" id="Layer_1" xmlns="http://www.w3.org/2000/svg" xmlns:xlink="http://www.w3.org/1999/xlink"
	 x="0px" y="0px" width="434px" height="430px" viewBox="0 0 434 430" xml:space="preserve">
<g>
	<path fill="#71CAC8" d="M216.931,428c117.207,0,212.801-95.594,212.801-212.799c0-117.209-95.594-212.803-212.801-212.803
		S4.129,97.992,4.129,215.201C4.129,332.406,99.724,428,216.931,428L216.931,428z M216.931,428"/>
	<g>
		<g>
			<g>
				<path fill="#5D556B" d="M317.443,379.143l-26.051-88.575c-0.81-2.758-3.695-4.355-6.468-3.525
					c-2.757,0.809-4.341,3.704-3.526,6.467l7.231,24.581H148.695l7.229-24.581c0.816-2.763-0.767-5.658-3.525-6.467
					c-2.789-0.834-5.658,0.768-6.468,3.525l-26.051,88.575c-0.814,2.763,0.769,5.658,3.527,6.468
					c0.493,0.147,0.986,0.214,1.469,0.214c2.255,0,4.331-1.471,4.997-3.74l15.756-53.574h146.065l15.757,53.574
					c0.666,2.27,2.741,3.74,4.996,3.74c0.483,0,0.982-0.066,1.471-0.214C316.676,384.801,318.259,381.905,317.443,379.143z"/>
			</g>
			<g>
				<path fill="#5D556B" d="M218.661,83.626c2.88,0,5.211-2.331,5.211-5.21V57.575c0-2.881-2.331-5.211-5.211-5.211
					c-2.88,0-5.209,2.33-5.209,5.211v20.841C213.451,81.295,215.781,83.626,218.661,83.626z"/>
			</g>
		</g>
		<g>
			<path fill="#FFFFFF" d="M369.761,73.205H67.563c-2.88,0-5.209,2.331-5.209,5.21v203.202c0,8.619,7.011,15.632,15.631,15.632
				H359.34c8.619,0,15.631-7.013,15.631-15.632V78.416C374.971,75.536,372.641,73.205,369.761,73.205z"/>
		</g>
		<g>
			<polygon fill="#FFE1B2" points="104.035,292.038 333.289,292.038 333.289,125.308 223.872,224.304 176.979,187.832 
				104.035,250.357 			"/>
		</g>
		<g>
			<polygon fill="#FDC98E" points="223.872,286.827 223.872,229.515 176.979,187.832 176.979,286.827 			"/>
		</g>
		<g>
			<g>
				<path fill="#F05326" d="M109.245,255.565c-1.333,0-2.667-0.509-3.683-1.526c-2.036-2.035-2.036-5.332,0-7.367l60.365-60.366
					c6.096-6.095,16.008-6.095,22.104,0l32.157,32.158c2.035,2.034,5.333,2.034,7.368,0l96.838-96.839
					c2.035-2.035,5.331-2.035,7.367,0c2.035,2.036,2.035,5.332,0,7.368l-96.838,96.837c-6.095,6.096-16.007,6.096-22.103,0
					l-32.159-32.157c-2.035-2.036-5.331-2.036-7.367,0l-60.365,60.366C111.912,255.057,110.578,255.565,109.245,255.565z"/>
			</g>
		</g>
		<g>
			<g>
				<path fill="#F05326" d="M328.077,177.412c-2.881,0-5.21-2.331-5.21-5.21v-41.682h-41.683c-2.879,0-5.209-2.331-5.209-5.211
					c0-2.881,2.33-5.21,5.209-5.21h46.893c2.881,0,5.212,2.33,5.212,5.21v46.893C333.289,175.081,330.958,177.412,328.077,177.412z"
					/>
			</g>
		</g>
		<g>
			<path fill="#8C8996" d="M364.55,83.626v197.991c0,2.873-2.338,5.21-5.21,5.21H77.984c-2.874,0-5.212-2.337-5.212-5.21V83.626
				H364.55 M369.761,73.205H67.563c-2.88,0-5.209,2.331-5.209,5.21v203.202c0,8.619,7.011,15.632,15.631,15.632H359.34
				c8.619,0,15.631-7.013,15.631-15.632V78.416C374.971,75.536,372.641,73.205,369.761,73.205L369.761,73.205z"/>
		</g>
		<g>
			<path fill="#9F655A" d="M57.142,88.837H380.18c2.878,0,5.212-2.334,5.212-5.211V73.205c0-2.878-2.334-5.21-5.212-5.21H57.142
				c-2.878,0-5.21,2.333-5.21,5.21v10.421C51.932,86.502,54.264,88.837,57.142,88.837z"/>
		</g>
	</g>
	<text transform="matrix(1 0 0 1 138.9443 275.5635)" fill="#676767" font-family="'Pacifico'" font-size="47.7969">Career</text>
</g>
</svg>
