<?xml version="1.0" encoding="utf-8"?>
<!-- Generator: Adobe Illustrator 16.0.0, SVG Export Plug-In . SVG Version: 6.00 Build 0)  -->
<!DOCTYPE svg PUBLIC "-//W3C//DTD SVG 1.1//EN" "http://www.w3.org/Graphics/SVG/1.1/DTD/svg11.dtd">
<svg version="1.1" id="Capa_1" xmlns="http://www.w3.org/2000/svg" xmlns:xlink="http://www.w3.org/1999/xlink" x="0px" y="0px"
	 width="207px" height="208px" viewBox="0 0 207 208" enable-background="new 0 0 207 208" xml:space="preserve">
<circle fill="#32BEA6" cx="103.5" cy="104" r="98"/>
<path display="none" fill="#C7CFE2" d="M41.357,130.951v8.709c0,2.404,1.95,4.355,4.355,4.355h117.577
	c2.404,0,4.355-1.951,4.355-4.355v-8.709H41.357z"/>
<polygon display="none" fill="#AFB9D2" points="121.919,161.434 87.081,161.434 89.259,144.016 119.741,144.016 "/>
<g display="none">
	<polygon display="inline" fill="#959CB3" points="120.286,148.37 119.741,144.016 89.259,144.016 88.714,148.37 	"/>
	<circle display="inline" fill="#959CB3" cx="104.5" cy="137.483" r="3.266"/>
</g>
<path display="none" fill="#FF6464" d="M136.072,83.05H72.929c-1.804,0-3.266-1.462-3.266-3.266l0,0
	c0-1.804,1.462-3.266,3.266-3.266h63.143c1.804,0,3.266,1.462,3.266,3.266l0,0C139.338,81.587,137.875,83.05,136.072,83.05z"/>
<g display="none">
	<path display="inline" fill="#AFB9D2" d="M137.16,93.936h-28.305c-1.203,0-2.178-0.975-2.178-2.177l0,0
		c0-1.202,0.975-2.177,2.178-2.177h28.306c1.202,0,2.177,0.975,2.177,2.177l0,0C139.338,92.961,138.363,93.936,137.16,93.936z"/>
	<path display="inline" fill="#AFB9D2" d="M100.145,93.936H71.839c-1.202,0-2.177-0.975-2.177-2.177l0,0
		c0-1.202,0.975-2.177,2.177-2.177h28.306c1.202,0,2.177,0.975,2.177,2.177l0,0C102.323,92.961,101.348,93.936,100.145,93.936z"/>
</g>
<g display="none">
	<path display="inline" fill="#C7CFE2" d="M137.16,102.646h-28.305c-1.203,0-2.178-0.975-2.178-2.177l0,0
		c0-1.202,0.975-2.177,2.178-2.177h28.306c1.202,0,2.177,0.975,2.177,2.177l0,0C139.338,101.671,138.363,102.646,137.16,102.646z"/>
	<path display="inline" fill="#C7CFE2" d="M100.145,102.646H71.839c-1.202,0-2.177-0.975-2.177-2.177l0,0
		c0-1.202,0.975-2.177,2.177-2.177h28.306c1.202,0,2.177,0.975,2.177,2.177l0,0C102.323,101.671,101.348,102.646,100.145,102.646z"
		/>
	<path display="inline" fill="#C7CFE2" d="M137.16,111.355h-28.305c-1.203,0-2.178-0.976-2.178-2.178l0,0
		c0-1.201,0.975-2.177,2.178-2.177h28.306c1.202,0,2.177,0.976,2.177,2.177l0,0C139.338,110.38,138.363,111.355,137.16,111.355z"/>
	<path display="inline" fill="#C7CFE2" d="M137.16,120.064h-28.305c-1.203,0-2.178-0.975-2.178-2.176l0,0
		c0-1.203,0.975-2.178,2.178-2.178h28.306c1.202,0,2.177,0.975,2.177,2.178l0,0C139.338,119.09,138.363,120.064,137.16,120.064z"/>
	<path display="inline" fill="#C7CFE2" d="M100.145,111.355H71.839c-1.202,0-2.177-0.976-2.177-2.178l0,0
		c0-1.201,0.975-2.177,2.177-2.177h28.306c1.202,0,2.177,0.976,2.177,2.177l0,0C102.323,110.38,101.348,111.355,100.145,111.355z"/>
</g>
<path display="none" fill="#E4EAF6" d="M102.323,124.419h-32.66v-6.664c0-1.129,0.916-2.045,2.045-2.045h28.57
	c1.129,0,2.045,0.916,2.045,2.045V124.419L102.323,124.419z"/>
<rect x="141.516" y="102.646" display="none" fill="#FF6464" width="8.709" height="54.434"/>
<rect x="141.516" y="102.646" display="none" fill="#D2555A" width="4.354" height="54.434"/>
<path display="none" fill="#FFE6A1" d="M141.516,102.646l3.721-14.884c0.164-0.66,1.103-0.66,1.268,0l3.721,14.884H141.516z"/>
<path display="none" fill="#FF6464" d="M145.236,87.762l-1.545,6.175h4.355l-1.544-6.175
	C146.338,87.102,145.4,87.102,145.236,87.762z"/>
<g display="none">
	<g display="inline">
		<path fill="#FFFFFF" d="M43.675,133.074c-0.158,0-0.317-0.038-0.462-0.115c-0.324-0.171-0.527-0.507-0.527-0.874V102.42
			c0-0.367,0.203-0.703,0.527-0.874c0.324-0.172,0.716-0.148,1.02,0.057l21.754,14.833c0.269,0.184,0.431,0.488,0.431,0.816
			s-0.162,0.633-0.432,0.816L44.232,132.9C44.064,133.016,43.869,133.074,43.675,133.074z M44.664,104.292v25.922l19.01-12.961"/>
	</g>
</g>
<path fill="#32BEA6" d="M201.421,103.211C201.421,48.979,157.33,5,102.961,5C48.591,5,4.5,48.979,4.5,103.211
	c0,54.231,44.091,98.21,98.461,98.21C157.33,201.421,201.421,157.442,201.421,103.211z"/>
<path fill="#295D66" d="M102.961,201.421c27.859,0,53.02-11.559,70.918-30.085c-1.111-5.977-2.223-11.439-3.293-14.805
	c-3.374-10.807-32.226-19.516-67.784-19.516s-64.093,8.709-67.466,19.516c-1.032,3.365-2.183,8.787-3.294,14.805
	C49.94,189.862,75.101,201.421,102.961,201.421z"/>
<path fill="#DADDE0" d="M121.138,138.085c-5.755-0.712-11.906-1.069-18.296-1.069c-6.311,0-12.382,0.357-18.057,1.069l18.176,36.022
	L121.138,138.085z"/>
<rect x="85.896" y="133.611" fill="#DEE0E2" width="34.129" height="9.896"/>
<path fill="#E2A379" d="M102.961,168.13l-15.002-30.4c0,0,3.651-4.909,14.843-4.909s15.12,4.947,15.12,4.947L102.961,168.13z"/>
<g>
	<path fill="#DADDE0" d="M71.212,146.397l14.684-12.786l12.7,25.296c0,0-10.001,2.81-10.121,2.69L71.212,146.397z"/>
	<path fill="#DADDE0" d="M134.708,146.397l-14.683-12.786l-12.698,25.296c0,0,10,2.81,10.118,2.69L134.708,146.397z"/>
</g>
<path fill="#E2A379" d="M118.398,116.669H87.522c4.802,14.489,0.397,21.099,0.397,21.099s6.707,2.415,15.042,2.415
	c8.333,0,15.041-2.415,15.041-2.415S113.596,131.158,118.398,116.669z"/>
<path fill="#F4B382" d="M138.004,74.353c0-36.577-15.676-44.969-35.043-44.969c-19.327,0-35.043,8.392-35.043,44.969
	c0,12.39,2.46,22.088,6.151,29.57c8.096,16.467,22.104,22.208,28.892,22.208c6.785,0,20.795-5.74,28.891-22.208
	C135.542,96.441,138.004,86.743,138.004,74.353z"/>
<path fill="#47200D" d="M138.004,74.353c0-36.577-12.026-45.958-35.043-45.958c-23.018,0-35.043,9.381-35.043,45.958
	c0,0,6.469-13.499,11.231-21.02c4.762-7.521,15.08-7.244,15.08-7.244h19.446c0,0,10.716,0.119,13.692,7.244L138.004,74.353z"/>
<g>
	<path fill="#191919" d="M102.762,120.944h0.199C102.881,120.944,102.842,120.944,102.762,120.944L102.762,120.944z"/>
	<path fill="#191919" d="M103.159,120.944L103.159,120.944c-0.08,0-0.118,0-0.198,0H103.159z"/>
</g>
<g>
	<path fill="#F4B382" d="M72.125,99.489c-3.333,0.554-5.715,0.04-7.58-10.965c-1.865-11.005,0.674-12.469,4.008-13.023
		L72.125,99.489z"/>
	<path fill="#F4B382" d="M133.836,99.489c3.333,0.554,5.675,0.04,7.58-10.965c1.905-11.005-0.675-12.469-4.009-13.023
		L133.836,99.489z"/>
</g>
<g>
	<polygon fill="#141414" points="78.554,82.032 72.998,81.755 73.236,80.607 78.752,80.884 	"/>
	<polygon fill="#141414" points="127.249,82.032 127.01,80.884 132.526,80.607 132.766,81.755 	"/>
	<path fill="#141414" d="M97.643,76.016H79.427c-0.833,0-1.508,0.673-1.508,1.504v10.134c0,0.832,0.675,1.504,1.508,1.504h18.216
		c0.833,0,1.507-0.673,1.507-1.504V77.48C99.15,76.688,98.476,76.016,97.643,76.016z M96.889,85.991c0,0.673-0.516,1.187-1.19,1.187
		H81.292c-0.675,0-1.19-0.514-1.19-1.187v-6.729c0-0.673,0.516-1.188,1.19-1.188h14.406c0.674,0,1.19,0.515,1.19,1.188V85.991z"/>
	<path fill="#141414" d="M126.494,76.016h-18.216c-0.834,0-1.509,0.673-1.509,1.504v10.134c0,0.832,0.675,1.504,1.509,1.504h18.216
		c0.834,0,1.508-0.673,1.508-1.504V77.48C128.002,76.688,127.328,76.016,126.494,76.016z M125.78,85.991
		c0,0.673-0.517,1.187-1.191,1.187h-14.405c-0.675,0-1.19-0.514-1.19-1.187v-6.729c0-0.673,0.516-1.188,1.19-1.188h14.405
		c0.675,0,1.191,0.515,1.191,1.188V85.991z"/>
	<path fill="#141414" d="M102.92,78.47c-4.444,0-4.88,2.731-4.761,4.117c-0.08,1.148,0.198,0.712,0.198,0.712
		c0.833-1.742,2.659-2.889,4.604-2.889c1.944,0,3.729,1.147,4.604,2.889c0,0,0.276,0.436,0.199-0.712
		C107.802,81.201,107.366,78.47,102.92,78.47z"/>
</g>
<g>
	<path fill="#E8D3BB" d="M125.78,85.991c0,0.673-0.517,1.187-1.191,1.187h-14.405c-0.675,0-1.19-0.514-1.19-1.187v-6.729
		c0-0.673,0.516-1.188,1.19-1.188h14.405c0.675,0,1.191,0.515,1.191,1.188V85.991z"/>
	<path fill="#E8D3BB" d="M96.889,85.991c0,0.673-0.516,1.187-1.19,1.187H81.292c-0.675,0-1.19-0.514-1.19-1.187v-6.729
		c0-0.673,0.516-1.188,1.19-1.188h14.406c0.674,0,1.19,0.515,1.19,1.188V85.991z"/>
</g>
<path fill="none" d="M113.556,106.733c0,1.029-4.722,3.76-10.595,3.76c-5.874,0-10.597-2.771-10.597-3.76
	c0-0.633,3.374-2.415,5.596-2.731c1.429-0.198,4.96,1.148,4.96,1.148s3.493-1.346,4.921-1.148
	C110.144,104.319,113.556,106.733,113.556,106.733z"/>
<path fill="#D89364" d="M113.556,106.733c0,1.029-4.722,4.909-10.595,4.909c-5.874,0-10.597-3.92-10.597-4.909
	c0,0,4.326,0.515,10.597,0.515S113.556,106.733,113.556,106.733z"/>
<g>
	<path fill="#47200D" d="M71.41,76.609l1.111,10.926l1.548-0.752c-0.079-9.105,1.032-29.214,1.032-29.214l-6.865,8.986
		c-0.16,2.454-0.278,5.067-0.278,7.838c0,0.356,0,0.712,0,1.069C69.505,75.382,71.41,75.541,71.41,76.609z"/>
	<path fill="#47200D" d="M134.511,76.609l-1.111,10.926l-1.548-0.752c0.079-9.105-1.031-32.776-1.031-32.776l6.865,12.548
		c0.158,2.454,0.277,5.067,0.277,7.838c0,0.356,0,0.712,0,1.069C136.415,75.382,134.511,75.541,134.511,76.609z"/>
</g>
<g>
	<path fill="#FFFFFF" d="M128.122,138.56L128.122,138.56L128.122,138.56L128.122,138.56z"/>
	<path fill="#FFFFFF" d="M122.963,137.966L122.963,137.966L122.963,137.966z"/>
</g>
</svg>
